<?xml version="1.0" standalone="no"?>
<!DOCTYPE svg PUBLIC "-//W3C//DTD SVG 20010904//EN"
 "http://www.w3.org/TR/2001/REC-SVG-20010904/DTD/svg10.dtd">
<svg version="1.0" xmlns="http://www.w3.org/2000/svg"
 width="1024.000000pt" height="1024.000000pt" viewBox="0 0 1024.000000 1024.000000"
 preserveAspectRatio="xMidYMid meet">
<metadata>
Created by potrace 1.16, written by Peter Selinger 2001-2019
</metadata>
<g transform="translate(0.000000,1024.000000) scale(0.100000,-0.100000)"
fill="#000000" stroke="none">
<path d="M1 9393 c1 -749 3 -836 14 -743 86 685 564 1274 1212 1490 140 46
272 77 386 89 52 5 -224 9 -765 10 l-848 1 1 -847z"/>
<path d="M8690 10224 c271 -39 538 -142 766 -293 371 -245 658 -663 759 -1101
l24 -105 0 758 1 757 -822 -1 c-741 -1 -814 -3 -728 -15z"/>
<path d="M2210 8765 c-306 -63 -533 -269 -627 -570 l-28 -90 -3 -2145 c-2
-1486 1 -2167 8 -2215 44 -285 247 -540 511 -639 159 -60 -43 -56 3009 -56
3052 0 2850 -4 3009 56 264 99 467 354 511 639 7 48 10 729 8 2215 l-3 2145
-28 90 c-96 309 -334 518 -651 574 -41 8 -941 11 -2855 10 -2289 -1 -2808 -3
-2861 -14z m4283 -790 c-9 -16 -17 -31 -18 -33 -4 -5 -425 207 -425 214 0 3 7
18 15 34 l15 30 214 -107 214 -107 -15 -31z m-113 -28 c0 -83 -24 -151 -117
-344 -54 -111 -101 -202 -105 -202 -3 -1 -85 38 -182 85 l-175 86 100 202 c87
173 109 210 161 263 l61 62 129 -65 c107 -54 128 -68 128 -87z m-410 -476
c155 -77 284 -142 287 -144 5 -6 -24 -67 -32 -67 -3 0 -133 64 -289 142 l-284
142 16 33 c9 18 17 33 18 33 1 0 129 -63 284 -139z m-38 -82 c156 -77 285
-143 287 -145 2 -2 -177 -370 -399 -817 l-403 -814 -64 -21 c-36 -11 -71 -18
-79 -15 -12 4 -14 -102 -14 -744 0 -867 6 -809 -94 -908 -152 -151 -496 -235
-841 -205 -346 30 -576 134 -651 294 l-24 51 0 971 c0 939 1 974 20 1035 23
76 72 153 158 248 l62 70 0 76 c0 75 1 77 23 71 56 -17 205 -46 232 -45 17 1
-8 7 -54 15 -106 18 -176 38 -226 67 -39 22 -40 24 -43 86 l-3 63 28 -15 c15
-9 75 -25 133 -36 286 -57 689 -56 950 1 52 11 95 19 95 17 0 -2 11 4 25 14
13 9 28 17 32 17 5 0 8 -25 8 -55 0 -51 -2 -56 -40 -86 l-40 -32 0 -76 c0 -63
3 -78 21 -97 l22 -23 293 589 c161 325 295 590 298 590 3 0 133 -63 288 -141z"/>
<path d="M5668 7324 c-19 -38 -26 -44 -45 -39 -32 8 -52 -30 -23 -45 l20 -11
-20 -39 c-17 -34 -24 -39 -44 -34 -31 7 -45 -24 -20 -43 16 -12 0 -48 -189
-431 -114 -230 -207 -422 -206 -428 0 -5 85 161 190 368 l189 378 175 -87 c96
-48 175 -91 175 -95 0 -5 -121 -251 -270 -548 l-270 -539 -36 -7 c-22 -4 -32
-10 -26 -16 6 -6 23 -3 44 8 34 16 52 50 327 606 278 563 291 588 314 583 31
-8 47 23 21 42 -16 12 -16 15 1 53 20 44 19 44 44 30 15 -7 20 -4 29 15 7 14
8 25 4 25 -4 0 -13 4 -20 9 -11 7 -10 16 7 49 12 23 21 46 21 52 0 8 -349 190
-365 190 -3 0 -15 -20 -27 -46z m212 -59 l170 -85 -20 -40 c-11 -22 -23 -40
-25 -40 -9 0 -345 170 -345 175 0 13 35 75 42 75 5 0 85 -38 178 -85z m98
-220 c3 -3 -25 -63 -33 -73 -2 -2 -82 36 -178 84 l-175 88 19 38 19 38 173
-86 c94 -48 173 -88 175 -89z m-234 -42 l174 -87 -19 -38 -19 -38 -173 86
c-94 48 -173 87 -175 89 -3 3 30 75 35 75 1 0 81 -39 177 -87z"/>
<path d="M3860 5791 c0 -37 98 -84 226 -110 225 -45 641 -33 830 23 64 20 118
56 121 81 3 18 2 18 -8 -2 -16 -31 -88 -62 -199 -86 -83 -19 -129 -21 -365
-22 -281 0 -354 7 -484 47 -42 13 -75 31 -93 50 -15 17 -28 25 -28 19z"/>
<path d="M3870 5064 l0 -113 53 -15 c128 -37 380 -66 562 -66 170 0 427 35
520 70 25 9 25 11 25 125 l0 115 -27 -11 c-100 -38 -335 -69 -520 -69 -163 0
-394 24 -519 55 l-94 22 0 -113z"/>
<path d="M5690 2280 c-131 -21 -273 -93 -353 -179 -26 -27 -47 -55 -47 -60 0
-9 43 -20 140 -36 33 -6 39 -2 105 63 92 90 137 106 290 105 158 -1 201 -17
290 -107 l70 -72 84 18 c46 10 86 19 88 22 10 10 -87 102 -153 146 -104 68
-210 100 -347 105 -62 2 -137 0 -167 -5z m286 -45 c42 -8 105 -28 138 -43 70
-33 166 -106 166 -126 0 -8 -17 -16 -42 -20 -41 -7 -43 -6 -92 47 -73 79 -145
110 -271 120 -158 13 -275 -24 -373 -117 -54 -52 -61 -55 -95 -49 -21 3 -40
10 -44 16 -18 29 141 128 257 161 104 29 240 33 356 11z"/>
<path d="M4425 1909 c-22 -12 -67 -32 -100 -43 -69 -25 -82 -52 -45 -91 21
-22 21 -24 18 -528 l-3 -506 -28 -29 c-19 -20 -28 -38 -25 -53 l3 -24 160 0
c155 0 160 1 163 21 2 12 -9 35 -24 53 -14 17 -30 48 -35 69 -5 20 -9 278 -9
573 0 496 -1 538 -17 558 l-18 21 -40 -21z m45 -333 c0 -149 -3 -281 -6 -293
-8 -30 -58 -47 -93 -30 l-26 12 -5 256 c-4 198 -8 260 -19 273 -17 20 -20 17
52 46 31 12 60 27 64 33 4 6 11 3 20 -8 10 -15 13 -78 13 -289z"/>
<path d="M8145 1908 c-22 -11 -67 -31 -100 -42 -69 -25 -80 -47 -45 -93 20
-28 21 -35 18 -524 l-3 -496 -28 -36 c-16 -22 -27 -47 -25 -60 3 -22 6 -22
161 -25 l157 -3 0 28 c0 15 -12 45 -27 67 l-28 39 -5 568 c-6 643 -2 617 -75
577z m33 -344 l-3 -299 -27 -13 c-23 -11 -33 -11 -55 0 l-28 13 -5 252 c-4
183 -8 255 -17 265 -7 6 -13 18 -13 25 0 7 6 13 13 13 6 1 37 13 67 29 30 15
58 25 63 21 4 -3 6 -141 5 -306z"/>
<path d="M3987 1903 c-16 -8 -56 -25 -90 -37 -70 -25 -83 -50 -48 -85 12 -12
21 -33 21 -47 l0 -26 -37 29 c-100 75 -206 106 -368 107 -168 0 -284 -38 -402
-133 -179 -145 -226 -391 -108 -566 38 -57 104 -110 185 -150 30 -15 57 -29
59 -31 3 -3 -18 -28 -46 -57 -53 -56 -93 -115 -93 -139 0 -9 29 -41 64 -71 61
-54 65 -56 94 -45 20 8 35 23 42 43 69 193 217 345 506 521 25 15 13 27 -52
52 l-50 20 -110 -70 c-60 -39 -141 -95 -181 -125 l-72 -54 -31 16 c-55 29
-113 89 -139 145 -22 48 -25 68 -25 165 0 97 3 117 26 165 37 81 108 154 183
190 54 26 75 30 142 30 169 0 311 -89 381 -238 l27 -57 3 -349 3 -349 -26 -39
c-15 -22 -25 -49 -23 -61 3 -22 6 -22 158 -22 153 0 155 0 158 22 2 13 -9 38
-25 60 l-28 36 -5 566 c-3 311 -9 574 -14 584 -10 20 -40 21 -79 0z m53 -332
c0 -218 -3 -300 -12 -309 -17 -17 -69 -15 -96 4 -19 13 -22 24 -22 89 0 239
-201 435 -446 435 -164 0 -282 -78 -361 -239 -33 -68 -36 -82 -39 -180 -3 -86
-6 -108 -21 -118 -24 -18 -35 -16 -74 10 -32 22 -34 26 -37 90 -3 75 15 147
52 212 48 81 166 172 281 215 115 44 315 37 445 -15 54 -22 128 -78 161 -122
13 -18 27 -33 32 -33 4 0 7 38 7 84 0 62 -4 87 -15 96 -8 7 -15 15 -15 19 0 4
30 18 66 31 36 14 68 28 71 33 18 29 23 -36 23 -302z"/>
<path d="M6304 1905 c-11 -8 -49 -25 -85 -38 -53 -19 -64 -27 -67 -48 -2 -15
5 -32 18 -44 17 -16 28 -45 16 -45 -3 0 -37 18 -78 39 -103 55 -190 75 -323
75 -115 -1 -201 -18 -280 -57 -77 -38 -167 -110 -210 -168 -61 -83 -80 -144
-80 -259 0 -84 3 -101 27 -145 29 -54 93 -121 147 -154 34 -20 35 -21 36 -93
2 -124 66 -221 185 -277 48 -23 68 -26 160 -26 94 0 110 3 155 27 62 32 126
98 154 157 30 63 29 174 -1 239 -51 108 -171 185 -299 190 -109 6 -178 -19
-256 -91 l-45 -41 -18 24 c-27 35 -40 97 -40 182 0 183 90 325 240 381 63 24
190 23 257 -2 119 -43 205 -135 252 -267 17 -50 21 -83 21 -193 0 -73 5 -141
10 -152 16 -29 47 -23 140 25 94 49 105 66 71 115 -20 28 -21 42 -21 326 0
185 -4 304 -10 316 -12 22 -46 24 -76 4z m44 -332 l-3 -308 -26 -9 c-18 -6
-35 -4 -55 5 -27 13 -29 19 -35 89 -8 101 -33 174 -83 245 -50 72 -141 147
-199 165 -23 7 -46 17 -51 22 -13 11 -202 10 -224 -1 -9 -4 -39 -18 -65 -30
-69 -31 -140 -102 -175 -174 -39 -82 -44 -104 -51 -222 -6 -98 -6 -100 -35
-114 -99 -47 -133 132 -56 294 62 129 196 224 370 261 180 38 372 -7 516 -123
35 -27 43 -30 48 -17 12 31 6 110 -10 132 -9 13 -14 24 -13 26 2 1 30 13 62
26 31 12 60 26 63 31 20 34 24 -16 22 -298z m-519 -407 c47 -21 66 -79 66
-196 0 -120 -17 -169 -69 -201 -60 -37 -138 -13 -172 53 -20 39 -29 144 -20
222 15 119 95 169 195 122z"/>
<path d="M2305 1840 c-211 -35 -371 -198 -435 -442 -21 -83 -28 -250 -11 -304
5 -16 14 -49 22 -74 45 -158 154 -274 309 -331 56 -21 83 -24 195 -24 123 0
133 2 185 28 69 36 114 78 140 134 62 132 -25 290 -210 382 -113 55 -180 70
-324 71 l-119 0 7 63 c16 139 68 268 132 331 54 53 112 76 190 76 86 0 131
-24 174 -90 18 -28 38 -49 44 -46 6 3 27 10 47 16 19 7 46 20 59 30 l24 18
-55 54 c-90 90 -234 132 -374 108z m205 -51 c62 -19 160 -79 160 -98 0 -5 -14
-14 -31 -21 -27 -12 -33 -11 -40 3 -5 9 -21 30 -35 47 -79 93 -252 95 -371 4
-83 -63 -147 -210 -167 -384 -8 -63 -12 -72 -43 -89 -30 -15 -47 -14 -73 7
l-22 18 17 82 c22 109 53 182 110 259 119 161 315 229 495 172z m-248 -610
c157 -33 259 -136 260 -264 1 -127 -93 -191 -226 -153 -128 36 -220 179 -228
353 -3 59 -3 59 27 66 48 11 110 10 167 -2z"/>
<path d="M7084 1840 c-178 -26 -339 -127 -417 -262 -56 -94 -72 -250 -34 -323
19 -38 86 -105 104 -105 15 0 16 -3 13 -96 -2 -85 23 -147 78 -195 51 -45 92
-59 172 -59 41 0 70 -4 70 -10 0 -20 -27 -75 -43 -89 -10 -7 -17 -24 -17 -37
l0 -24 140 0 c157 0 156 -1 125 73 -12 28 -15 82 -15 246 0 206 0 210 23 237
16 18 29 25 41 21 33 -13 40 -57 40 -257 1 -183 0 -198 -21 -241 -40 -81 -43
-79 122 -79 l145 0 0 27 c0 14 -7 34 -16 44 -31 35 -43 92 -44 211 0 151 1
153 52 126 30 -16 45 -19 57 -11 27 17 99 125 115 175 20 60 21 197 1 262 -74
244 -388 410 -691 366z m222 -41 c32 -6 68 -14 79 -19 11 -4 36 -14 55 -21
110 -40 233 -149 276 -244 30 -64 46 -165 36 -215 -7 -31 -12 -35 -42 -38 -18
-2 -44 2 -57 9 -19 10 -23 20 -23 61 0 146 -92 318 -210 393 -68 43 -150 65
-244 65 -78 0 -95 -4 -159 -33 -127 -59 -211 -174 -236 -320 -9 -50 -9 -78 -1
-109 14 -50 0 -69 -54 -71 -57 -2 -71 20 -71 111 0 114 31 192 109 274 125
132 341 194 542 157z m56 -87 c102 -50 178 -143 214 -261 18 -60 18 -261 0
-321 l-14 -45 -12 30 c-45 114 -102 179 -167 191 -60 11 -147 0 -180 -24 -40
-28 -54 -28 -99 3 -51 35 -132 35 -200 0 -27 -14 -54 -23 -61 -21 -6 3 -17 29
-23 59 -26 112 39 277 139 356 71 57 122 71 236 68 91 -2 107 -5 167 -35z
m-301 -529 c6 -16 9 -79 7 -145 -2 -96 -6 -121 -21 -135 -16 -16 -20 -16 -44
-3 -85 48 -62 310 27 310 13 0 24 -10 31 -27z"/>
<path d="M1 833 l-1 -833 758 1 c677 1 750 2 692 15 -256 56 -487 158 -704
311 -118 84 -318 287 -410 418 -88 124 -200 344 -245 480 -34 106 -68 259 -80
365 -5 46 -9 -242 -10 -757z"/>
<path d="M10217 1406 c-50 -242 -177 -511 -346 -731 -240 -314 -622 -556
-1026 -650 l-100 -24 748 0 747 -1 0 745 c0 410 -1 745 -3 745 -1 0 -10 -38
-20 -84z"/>
</g>
</svg>
